<svg width="720" height="720" viewBox="0 0 720 720" fill="none" xmlns="http://www.w3.org/2000/svg">
  <defs>
    <linearGradient id="bg" x1="0" y1="0" x2="720" y2="720" gradientUnits="userSpaceOnUse">
      <stop stop-color="#0f2626"/>
      <stop offset="1" stop-color="#0a1a1a"/>
    </linearGradient>
    <linearGradient id="accent" x1="160" y1="140" x2="560" y2="560" gradientUnits="userSpaceOnUse">
      <stop stop-color="#22d3ee"/>
      <stop offset="1" stop-color="#0891b2"/>
    </linearGradient>
  </defs>

  <rect x="0" y="0" width="720" height="720" rx="36" fill="url(#bg)"/>
  <circle cx="560" cy="160" r="120" fill="#22d3ee" opacity="0.08"/>
  <circle cx="140" cy="620" r="160" fill="#22d3ee" opacity="0.08"/>

  <rect x="160" y="140" width="400" height="440" rx="24" fill="#0f2626" stroke="#1a3d3d" stroke-width="2"/>
  <rect x="192" y="188" width="336" height="76" rx="12" fill="#0a1a1a" stroke="#1a3d3d"/>
  <rect x="192" y="292" width="336" height="76" rx="12" fill="#0a1a1a" stroke="#1a3d3d"/>
  <rect x="192" y="396" width="336" height="48" rx="12" fill="url(#accent)"/>

  <path d="M360 80L460 128V240C460 314 420 373 360 401C300 373 260 314 260 240V128L360 80Z" fill="url(#accent)" opacity="0.2"/>
  <path d="M360 112L436 148V240C436 300 405 349 360 374C315 349 284 300 284 240V148L360 112Z" stroke="#22d3ee" stroke-width="3"/>
  <path d="M336 242L353 260L388 224" stroke="#22d3ee" stroke-width="8" stroke-linecap="round" stroke-linejoin="round"/>

  <circle cx="226" cy="226" r="8" fill="#22d3ee"/>
  <circle cx="226" cy="330" r="8" fill="#22d3ee"/>
  <rect x="244" y="214" width="220" height="22" rx="11" fill="#103030"/>
  <rect x="244" y="318" width="220" height="22" rx="11" fill="#103030"/>
  <rect x="294" y="410" width="132" height="20" rx="10" fill="#042f3a"/>

  <text x="360" y="520" text-anchor="middle" fill="#22d3ee" font-family="Arial, sans-serif" font-size="24" font-weight="700">
    SECURE ACCESS
  </text>
</svg>
