<svg width="1160" height="320" viewBox="0 0 1160 320" fill="none" xmlns="http://www.w3.org/2000/svg">
<path d="M841.75 96.7403C858.06 96.4103 855.91 95.7103 863.14 103.72C863.507 104.12 863.867 104.487 864.22 104.82L867.04 108.44H867.02L872.76 115.53C875.92 119.44 881.81 126.63 885.85 131.53C889.89 136.43 897.54 145.84 902.85 152.44L912.5 164.44L913.5 106.71L927 103.29C934.42 101.4 941.17 99.7703 942 99.6503C943.32 99.4703 943.53 106.31 943.76 155.19L944.02 210.94H913.75L910.02 206.69C906.57 202.76 898.36 192.62 877.01 165.94C872.39 160.17 866.22 152.6 863.3 149.13L858 142.83V210.94H827V97.0403L841.75 96.7403Z" fill="white"/>
<path fill-rule="evenodd" clip-rule="evenodd" d="M0 153.94V210.94H15.49H30.97L31.24 176.94L31.5 142.94L44.62 158.69C69.1 188.07 81.22 202.43 85.14 206.69L89.04 210.94H103.02H117V153.94V96.9403H101.51H86.03L85.76 130.14L85.5 163.33L78.53 154.89C74.7 150.24 68.82 143.29 65.47 139.44C62.12 135.59 58.28 131.04 56.94 129.34C55.6 127.63 48.96 119.64 42.18 111.59L29.86 96.9403H14.93H0V153.94Z" fill="white"/>
<path fill-rule="evenodd" clip-rule="evenodd" d="M259 97.6403C259 98.2703 293.79 201.58 296.24 208.21L297.26 210.99L312.37 210.71L327.48 210.44L335.55 186.94C340 174.02 345.02 159.49 346.71 154.65L349.79 145.87L351.47 150.65C352.39 153.29 357.12 167.14 361.97 181.44C366.82 195.74 371.11 208.23 371.5 209.19C372.14 210.75 373.88 210.94 387.41 210.94H402.62L406.45 199.69C408.56 193.5 413.19 180.34 416.74 170.44C423.06 152.83 442 97.9603 442 97.2803C442 97.0903 434.63 96.9403 425.62 96.9403C410.87 96.9403 409.18 97.1203 408.74 98.6903C406.92 105.18 389.68 160.29 388.36 163.83L386.72 168.23L383.57 159.83C381.84 155.22 376.18 139.16 371 124.16L361.58 96.8803L349.68 97.1603L337.78 97.4403L334.38 106.94C332.51 112.17 327.06 128.02 322.26 142.17C317.48 156.32 313.27 167.57 312.91 167.17C312.23 166.39 302.62 136.49 299.02 123.94C297.84 119.82 295.52 112.05 293.87 106.69L290.87 96.9403H274.94C266.17 96.9403 259 97.2603 259 97.6403Z" fill="white"/>
<path d="M489.26 96.9503L505.5 96.9603L507.15 100.7C510.78 108.89 523.32 135.9 527 143.44C530.61 150.82 533.82 157.74 551.57 196.23C556.02 205.89 557.55 210.17 556.68 210.51C555.99 210.78 548.32 210.87 539.65 210.72L523.88 210.44L519.27 200.19L514.66 189.94L488.58 189.95L462.5 189.97L460.22 195.9C458.97 199.16 457.03 203.87 455.92 206.38L453.91 210.94H437.45C428.4 210.94 421 210.77 421 210.56C421 209.84 424.19 202.39 427.48 195.44C429.3 191.59 435.96 177.19 442.26 163.44C448.57 149.69 456 133.49 458.77 127.44C461.55 121.39 465.89 112.05 468.42 106.69L473.02 96.9403L489.26 96.9503ZM489.11 129.75C488.77 129.37 487.07 132.52 485.33 136.75C483.59 140.98 480.12 149.28 477.62 155.19L473.08 165.94H505.13L504.44 163.69C503.57 160.86 489.94 130.7 489.11 129.75Z" fill="white"/>
<path fill-rule="evenodd" clip-rule="evenodd" d="M564 109.44V121.94H594.58H625.16L621.83 125.79C620 127.9 613.6 135.21 607.62 142.04C601.63 148.86 592.85 158.9 588.12 164.36C583.38 169.81 576.46 177.69 572.75 181.85L566 189.43V200.19V210.94H618H670V198.45V185.97L640.01 185.7L610.02 185.44L614.26 180.28C618.94 174.58 636.09 154.73 637.01 153.94C637.33 153.67 644.44 145.49 652.8 135.77L668 118.09V107.52V96.9403H616H564V109.44Z" fill="white"/>
<path fill-rule="evenodd" clip-rule="evenodd" d="M961 153.95V210.96L1006.75 210.7L1052.5 210.44V198.44V186.44L1022.75 186.18L993 185.91V175.93C993 166.28 993.08 165.94 995.25 165.79C996.49 165.7 997.95 165.53 998.5 165.4C999.05 165.28 1009.53 165.12 1021.78 165.06L1044.06 164.94L1043.78 153.19L1043.5 141.44L1018.25 141.17L993 140.91V131.44V121.97L1021.75 121.7L1050.5 121.44L1050.78 109.19L1051.06 96.9403H1006.03H961V153.95Z" fill="white"/>
<path d="M213.018 270V242H225.578C228.805 242 231.285 242.653 233.018 243.96C234.751 245.24 235.618 247 235.618 249.24C235.618 250.76 235.271 252.04 234.578 253.08C233.911 254.12 233.005 254.92 231.858 255.48C230.711 256.04 229.471 256.32 228.138 256.32L228.858 255.12C230.458 255.12 231.871 255.4 233.098 255.96C234.325 256.52 235.298 257.347 236.018 258.44C236.738 259.507 237.098 260.84 237.098 262.44C237.098 264.84 236.191 266.707 234.378 268.04C232.591 269.347 229.925 270 226.378 270H213.018ZM217.018 266.76H226.218C228.431 266.76 230.125 266.387 231.298 265.64C232.471 264.893 233.058 263.72 233.058 262.12C233.058 260.493 232.471 259.307 231.298 258.56C230.125 257.813 228.431 257.44 226.218 257.44H216.658V254.2H225.218C227.245 254.2 228.818 253.827 229.938 253.08C231.058 252.333 231.618 251.213 231.618 249.72C231.618 248.227 231.058 247.107 229.938 246.36C228.818 245.613 227.245 245.24 225.218 245.24H217.018V266.76ZM259.251 270.24C257.438 270.24 255.838 269.907 254.451 269.24C253.091 268.573 252.025 267.56 251.251 266.2C250.505 264.813 250.131 263.08 250.131 261V248.8H253.971V260.56C253.971 262.64 254.465 264.2 255.451 265.24C256.465 266.28 257.878 266.8 259.691 266.8C261.025 266.8 262.185 266.533 263.171 266C264.158 265.44 264.918 264.64 265.451 263.6C265.985 262.533 266.251 261.253 266.251 259.76V248.8H270.091V270H266.451V264.28L267.051 265.8C266.358 267.213 265.318 268.307 263.931 269.08C262.545 269.853 260.985 270.24 259.251 270.24ZM285.002 270V248.8H288.842V270H285.002ZM286.922 244.72C286.175 244.72 285.548 244.48 285.042 244C284.562 243.52 284.322 242.933 284.322 242.24C284.322 241.52 284.562 240.92 285.042 240.44C285.548 239.96 286.175 239.72 286.922 239.72C287.668 239.72 288.282 239.96 288.762 240.44C289.268 240.893 289.522 241.467 289.522 242.16C289.522 242.88 289.282 243.493 288.802 244C288.322 244.48 287.695 244.72 286.922 244.72ZM303.774 270V240.32H307.614V270H303.774ZM331.305 270.24C329.252 270.24 327.412 269.787 325.785 268.88C324.185 267.973 322.919 266.707 321.985 265.08C321.052 263.453 320.585 261.56 320.585 259.4C320.585 257.24 321.052 255.36 321.985 253.76C322.919 252.133 324.185 250.867 325.785 249.96C327.412 249.053 329.252 248.6 331.305 248.6C333.092 248.6 334.705 249 336.145 249.8C337.585 250.6 338.732 251.8 339.585 253.4C340.465 255 340.905 257 340.905 259.4C340.905 261.8 340.479 263.8 339.625 265.4C338.799 267 337.665 268.213 336.225 269.04C334.785 269.84 333.145 270.24 331.305 270.24ZM331.625 266.88C332.959 266.88 334.159 266.573 335.225 265.96C336.319 265.347 337.172 264.48 337.785 263.36C338.425 262.213 338.745 260.893 338.745 259.4C338.745 257.88 338.425 256.573 337.785 255.48C337.172 254.36 336.319 253.493 335.225 252.88C334.159 252.267 332.959 251.96 331.625 251.96C330.265 251.96 329.052 252.267 327.985 252.88C326.919 253.493 326.065 254.36 325.425 255.48C324.785 256.573 324.465 257.88 324.465 259.4C324.465 260.893 324.785 262.213 325.425 263.36C326.065 264.48 326.919 265.347 327.985 265.96C329.052 266.573 330.265 266.88 331.625 266.88ZM338.865 270V264.28L339.105 259.36L338.705 254.44V240.32H342.545V270H338.865ZM368.713 277.76V240.32H372.273V277.76H368.713ZM419.249 270.32C417.115 270.32 415.129 269.96 413.289 269.24C411.475 268.52 409.902 267.52 408.569 266.24C407.235 264.933 406.195 263.413 405.449 261.68C404.702 259.947 404.329 258.053 404.329 256C404.329 253.947 404.702 252.053 405.449 250.32C406.195 248.587 407.235 247.08 408.569 245.8C409.902 244.493 411.475 243.48 413.289 242.76C415.102 242.04 417.089 241.68 419.249 241.68C421.382 241.68 423.342 242.04 425.129 242.76C426.942 243.453 428.515 244.453 429.849 245.76C431.209 247.04 432.249 248.547 432.969 250.28C433.715 252.013 434.089 253.92 434.089 256C434.089 258.08 433.715 259.987 432.969 261.72C432.249 263.453 431.209 264.973 429.849 266.28C428.515 267.56 426.942 268.56 425.129 269.28C423.342 269.973 421.382 270.32 419.249 270.32ZM419.249 266.76C420.795 266.76 422.222 266.493 423.529 265.96C424.862 265.427 426.009 264.68 426.969 263.72C427.955 262.733 428.715 261.587 429.249 260.28C429.809 258.973 430.089 257.547 430.089 256C430.089 254.453 429.809 253.027 429.249 251.72C428.715 250.413 427.955 249.28 426.969 248.32C426.009 247.333 424.862 246.573 423.529 246.04C422.222 245.507 420.795 245.24 419.249 245.24C417.675 245.24 416.222 245.507 414.889 246.04C413.582 246.573 412.435 247.333 411.449 248.32C410.462 249.28 409.689 250.413 409.129 251.72C408.595 253.027 408.329 254.453 408.329 256C408.329 257.547 408.595 258.973 409.129 260.28C409.689 261.587 410.462 262.733 411.449 263.72C412.435 264.68 413.582 265.427 414.889 265.96C416.222 266.493 417.675 266.76 419.249 266.76ZM458.482 270.24C456.722 270.24 455.109 269.84 453.642 269.04C452.202 268.213 451.042 267 450.162 265.4C449.309 263.8 448.882 261.8 448.882 259.4C448.882 257 449.296 255 450.122 253.4C450.976 251.8 452.122 250.6 453.562 249.8C455.029 249 456.669 248.6 458.482 248.6C460.562 248.6 462.402 249.053 464.002 249.96C465.602 250.867 466.869 252.133 467.802 253.76C468.736 255.36 469.202 257.24 469.202 259.4C469.202 261.56 468.736 263.453 467.802 265.08C466.869 266.707 465.602 267.973 464.002 268.88C462.402 269.787 460.562 270.24 458.482 270.24ZM447.242 277.76V248.8H450.922V254.52L450.682 259.44L451.082 264.36V277.76H447.242ZM458.162 266.88C459.522 266.88 460.736 266.573 461.802 265.96C462.896 265.347 463.749 264.48 464.362 263.36C465.002 262.213 465.322 260.893 465.322 259.4C465.322 257.88 465.002 256.573 464.362 255.48C463.749 254.36 462.896 253.493 461.802 252.88C460.736 252.267 459.522 251.96 458.162 251.96C456.829 251.96 455.616 252.267 454.522 252.88C453.456 253.493 452.602 254.36 451.962 255.48C451.349 256.573 451.042 257.88 451.042 259.4C451.042 260.893 451.349 262.213 451.962 263.36C452.602 264.48 453.456 265.347 454.522 265.96C455.616 266.573 456.829 266.88 458.162 266.88ZM489.388 270.24C487.255 270.24 485.601 269.667 484.428 268.52C483.255 267.373 482.668 265.733 482.668 263.6V244.16H486.508V263.44C486.508 264.587 486.788 265.467 487.348 266.08C487.935 266.693 488.761 267 489.828 267C491.028 267 492.028 266.667 492.828 266L494.028 268.76C493.441 269.267 492.735 269.64 491.908 269.88C491.108 270.12 490.268 270.24 489.388 270.24ZM479.068 251.96V248.8H492.588V251.96H479.068ZM506.27 270V248.8H510.11V270H506.27ZM508.19 244.72C507.444 244.72 506.817 244.48 506.31 244C505.83 243.52 505.59 242.933 505.59 242.24C505.59 241.52 505.83 240.92 506.31 240.44C506.817 239.96 507.444 239.72 508.19 239.72C508.937 239.72 509.55 239.96 510.03 240.44C510.537 240.893 510.79 241.467 510.79 242.16C510.79 242.88 510.55 243.493 510.07 244C509.59 244.48 508.964 244.72 508.19 244.72ZM551.562 248.6C553.269 248.6 554.776 248.933 556.082 249.6C557.389 250.267 558.402 251.28 559.122 252.64C559.869 254 560.242 255.72 560.242 257.8V270H556.402V258.24C556.402 256.187 555.922 254.64 554.962 253.6C554.002 252.56 552.656 252.04 550.922 252.04C549.642 252.04 548.522 252.307 547.562 252.84C546.602 253.373 545.856 254.16 545.322 255.2C544.816 256.24 544.562 257.533 544.562 259.08V270H540.722V258.24C540.722 256.187 540.242 254.64 539.282 253.6C538.349 252.56 537.002 252.04 535.242 252.04C533.989 252.04 532.882 252.307 531.922 252.84C530.962 253.373 530.216 254.16 529.682 255.2C529.149 256.24 528.882 257.533 528.882 259.08V270H525.042V248.8H528.722V254.44L528.122 253C528.789 251.613 529.816 250.533 531.202 249.76C532.589 248.987 534.202 248.6 536.042 248.6C538.069 248.6 539.816 249.107 541.282 250.12C542.749 251.107 543.709 252.613 544.162 254.64L542.602 254C543.242 252.373 544.362 251.067 545.962 250.08C547.562 249.093 549.429 248.6 551.562 248.6ZM574.908 270V248.8H578.748V270H574.908ZM576.828 244.72C576.081 244.72 575.455 244.48 574.948 244C574.468 243.52 574.228 242.933 574.228 242.24C574.228 241.52 574.468 240.92 574.948 240.44C575.455 239.96 576.081 239.72 576.828 239.72C577.575 239.72 578.188 239.96 578.668 240.44C579.175 240.893 579.428 241.467 579.428 242.16C579.428 242.88 579.188 243.493 578.708 244C578.228 244.48 577.601 244.72 576.828 244.72ZM591.64 270V267.52L605.24 250.64L606 251.96H591.88V248.8H609.08V251.32L595.48 268.16L594.6 266.84H609.4V270H591.64ZM631.267 270.24C629 270.24 627 269.773 625.267 268.84C623.56 267.907 622.227 266.627 621.267 265C620.333 263.373 619.867 261.507 619.867 259.4C619.867 257.293 620.32 255.427 621.227 253.8C622.16 252.173 623.427 250.907 625.027 250C626.653 249.067 628.48 248.6 630.507 248.6C632.56 248.6 634.373 249.053 635.947 249.96C637.52 250.867 638.747 252.147 639.627 253.8C640.533 255.427 640.987 257.333 640.987 259.52C640.987 259.68 640.973 259.867 640.947 260.08C640.947 260.293 640.933 260.493 640.907 260.68H622.867V257.92H638.907L637.347 258.88C637.373 257.52 637.093 256.307 636.507 255.24C635.92 254.173 635.107 253.347 634.067 252.76C633.053 252.147 631.867 251.84 630.507 251.84C629.173 251.84 627.987 252.147 626.947 252.76C625.907 253.347 625.093 254.187 624.507 255.28C623.92 256.347 623.627 257.573 623.627 258.96V259.6C623.627 261.013 623.947 262.28 624.587 263.4C625.253 264.493 626.173 265.347 627.347 265.96C628.52 266.573 629.867 266.88 631.387 266.88C632.64 266.88 633.773 266.667 634.787 266.24C635.827 265.813 636.733 265.173 637.507 264.32L639.627 266.8C638.667 267.92 637.467 268.773 636.027 269.36C634.613 269.947 633.027 270.24 631.267 270.24ZM672.821 277.76V240.32H676.381V277.76H672.821ZM718.876 270.32C716.743 270.32 714.703 270 712.756 269.36C710.81 268.693 709.276 267.84 708.156 266.8L709.636 263.68C710.703 264.613 712.063 265.387 713.716 266C715.37 266.613 717.09 266.92 718.876 266.92C720.503 266.92 721.823 266.733 722.836 266.36C723.85 265.987 724.596 265.48 725.076 264.84C725.556 264.173 725.796 263.427 725.796 262.6C725.796 261.64 725.476 260.867 724.836 260.28C724.223 259.693 723.41 259.227 722.396 258.88C721.41 258.507 720.316 258.187 719.116 257.92C717.916 257.653 716.703 257.347 715.476 257C714.276 256.627 713.17 256.16 712.156 255.6C711.17 255.04 710.37 254.293 709.756 253.36C709.143 252.4 708.836 251.173 708.836 249.68C708.836 248.24 709.21 246.92 709.956 245.72C710.73 244.493 711.903 243.52 713.476 242.8C715.076 242.053 717.103 241.68 719.556 241.68C721.183 241.68 722.796 241.893 724.396 242.32C725.996 242.747 727.383 243.36 728.556 244.16L727.236 247.36C726.036 246.56 724.77 245.987 723.436 245.64C722.103 245.267 720.81 245.08 719.556 245.08C717.983 245.08 716.69 245.28 715.676 245.68C714.663 246.08 713.916 246.613 713.436 247.28C712.983 247.947 712.756 248.693 712.756 249.52C712.756 250.507 713.063 251.293 713.676 251.88C714.316 252.467 715.13 252.933 716.116 253.28C717.13 253.627 718.236 253.947 719.436 254.24C720.636 254.507 721.836 254.813 723.036 255.16C724.263 255.507 725.37 255.96 726.356 256.52C727.37 257.08 728.183 257.827 728.796 258.76C729.41 259.693 729.716 260.893 729.716 262.36C729.716 263.773 729.33 265.093 728.556 266.32C727.783 267.52 726.583 268.493 724.956 269.24C723.356 269.96 721.33 270.32 718.876 270.32ZM751.84 270.24C749.68 270.24 747.747 269.773 746.04 268.84C744.36 267.907 743.04 266.627 742.08 265C741.12 263.373 740.64 261.507 740.64 259.4C740.64 257.293 741.12 255.427 742.08 253.8C743.04 252.173 744.36 250.907 746.04 250C747.747 249.067 749.68 248.6 751.84 248.6C753.76 248.6 755.467 248.987 756.96 249.76C758.48 250.507 759.654 251.627 760.48 253.12L757.56 255C756.867 253.96 756.014 253.2 755 252.72C754.014 252.213 752.947 251.96 751.8 251.96C750.414 251.96 749.174 252.267 748.08 252.88C746.987 253.493 746.12 254.36 745.48 255.48C744.84 256.573 744.52 257.88 744.52 259.4C744.52 260.92 744.84 262.24 745.48 263.36C746.12 264.48 746.987 265.347 748.08 265.96C749.174 266.573 750.414 266.88 751.8 266.88C752.947 266.88 754.014 266.64 755 266.16C756.014 265.653 756.867 264.88 757.56 263.84L760.48 265.68C759.654 267.147 758.48 268.28 756.96 269.08C755.467 269.853 753.76 270.24 751.84 270.24ZM786.212 270V265.52L786.012 264.68V257.04C786.012 255.413 785.532 254.16 784.572 253.28C783.638 252.373 782.225 251.92 780.332 251.92C779.078 251.92 777.852 252.133 776.652 252.56C775.452 252.96 774.438 253.507 773.612 254.2L772.012 251.32C773.105 250.44 774.412 249.773 775.932 249.32C777.478 248.84 779.092 248.6 780.772 248.6C783.678 248.6 785.918 249.307 787.492 250.72C789.065 252.133 789.852 254.293 789.852 257.2V270H786.212ZM779.252 270.24C777.678 270.24 776.292 269.973 775.092 269.44C773.918 268.907 773.012 268.173 772.372 267.24C771.732 266.28 771.412 265.2 771.412 264C771.412 262.853 771.678 261.813 772.212 260.88C772.772 259.947 773.665 259.2 774.892 258.64C776.145 258.08 777.825 257.8 779.932 257.8H786.652V260.56H780.092C778.172 260.56 776.878 260.88 776.212 261.52C775.545 262.16 775.212 262.933 775.212 263.84C775.212 264.88 775.625 265.72 776.452 266.36C777.278 266.973 778.425 267.28 779.892 267.28C781.332 267.28 782.585 266.96 783.652 266.32C784.745 265.68 785.532 264.747 786.012 263.52L786.772 266.16C786.265 267.413 785.372 268.413 784.092 269.16C782.812 269.88 781.198 270.24 779.252 270.24ZM804.558 270V240.32H808.398V270H804.558ZM832.77 270.24C830.503 270.24 828.503 269.773 826.77 268.84C825.063 267.907 823.73 266.627 822.77 265C821.836 263.373 821.37 261.507 821.37 259.4C821.37 257.293 821.823 255.427 822.73 253.8C823.663 252.173 824.93 250.907 826.53 250C828.156 249.067 829.983 248.6 832.01 248.6C834.063 248.6 835.876 249.053 837.45 249.96C839.023 250.867 840.25 252.147 841.13 253.8C842.036 255.427 842.49 257.333 842.49 259.52C842.49 259.68 842.476 259.867 842.45 260.08C842.45 260.293 842.436 260.493 842.41 260.68H824.37V257.92H840.41L838.85 258.88C838.876 257.52 838.596 256.307 838.01 255.24C837.423 254.173 836.61 253.347 835.57 252.76C834.556 252.147 833.37 251.84 832.01 251.84C830.676 251.84 829.49 252.147 828.45 252.76C827.41 253.347 826.596 254.187 826.01 255.28C825.423 256.347 825.13 257.573 825.13 258.96V259.6C825.13 261.013 825.45 262.28 826.09 263.4C826.756 264.493 827.676 265.347 828.85 265.96C830.023 266.573 831.37 266.88 832.89 266.88C834.143 266.88 835.276 266.667 836.29 266.24C837.33 265.813 838.236 265.173 839.01 264.32L841.13 266.8C840.17 267.92 838.97 268.773 837.53 269.36C836.116 269.947 834.53 270.24 832.77 270.24Z" fill="white"/>
<path fill-rule="evenodd" clip-rule="evenodd" d="M741.767 92.3714C734.609 93.0566 726.47 95.4181 720.361 98.5845C708.956 104.496 700.494 112.753 694.375 123.938C690.29 131.403 687.782 141.495 688.207 148.757C688.874 160.149 697.289 171.148 711.72 179.488C715.743 181.811 722.226 184.654 726.349 185.902C728.657 186.6 732.283 187.59 732.92 187.696C733.862 187.851 733.517 187.532 732.006 186.848C724.125 183.279 715.95 175.474 711.954 167.704C710.11 164.117 709.103 161.073 708.517 157.319C706.934 147.178 711.542 135.515 720.578 126.792C723.542 123.93 725.123 122.684 731.407 118.252C733.996 116.427 737.208 114.152 738.547 113.197C746.785 107.315 749.848 105.359 754.958 102.711C760.99 99.5846 765.381 98.0131 770.119 97.2826C770.547 97.2157 770.896 97.1111 770.895 97.0485C770.888 96.8922 766.199 95.2384 764.175 94.6772C757.915 92.945 752.674 92.1924 746.827 92.189C745.105 92.188 742.829 92.2696 741.767 92.3714Z" fill="#146CFF"/>
<path fill-rule="evenodd" clip-rule="evenodd" d="M767.694 101.368C762.418 102.094 755.851 104.807 750.143 108.622C748.355 109.818 745.519 111.923 745.522 112.052C745.523 112.117 746.47 112.193 747.626 112.222C760.19 112.538 772.418 118.605 780.161 128.363C782.534 131.351 785.109 135.918 786.36 139.347C790.335 150.251 788.143 162.566 780.286 173.463C775.596 179.969 769.767 185.022 761.029 190.162C750.054 196.616 739.613 201.465 731.981 203.654C727.561 204.921 725.507 205.281 722.277 205.359C720.67 205.398 719.357 205.467 719.361 205.512C719.366 205.592 720.404 206.05 724.012 207.568C727.473 209.024 732.302 210.42 736.655 211.225C744.863 212.742 754.193 212.599 762.048 210.834C776.516 207.586 788.991 199.637 798.049 187.9C800.653 184.526 803.47 179.835 805.026 176.282C810.13 164.635 811.406 152.108 808.717 140.067C808.145 137.51 806.436 132.556 805.085 129.536C801.082 120.592 794.425 112.287 787.003 106.977C782.754 103.938 778.613 102.141 774.286 101.458C772.559 101.183 769.35 101.14 767.694 101.368Z" fill="white"/>
<path fill-rule="evenodd" clip-rule="evenodd" d="M686.32 159.482C686.373 159.776 686.473 160.533 686.542 161.166C686.825 163.736 688.026 168.556 689.236 171.979C692.201 180.358 697.169 188.218 703.294 194.22C707.534 198.374 710.232 200.13 714.35 201.411C717.168 202.286 718.753 202.478 722.419 202.384C724.943 202.321 726.102 202.213 727.844 201.883C733.503 200.81 739.512 198.659 745.824 195.448C749.024 193.82 752.38 191.833 752.254 191.639C752.208 191.569 751.667 191.558 751.053 191.616C749.56 191.755 744.877 191.53 742.091 191.186C728.161 189.463 715.208 184.976 704.824 178.273C697.053 173.258 690.578 166.701 687.391 160.62C686.489 158.899 686.155 158.543 686.32 159.482Z" fill="#146CFF"/>
<path d="M191.64 93.4412C207.31 93.3012 214.02 94.7312 227.2 101.051C234.59 104.601 238.14 107.061 243.27 112.211C251.46 120.431 254.64 125.821 257.2 135.821C261.01 150.711 259.46 167.961 253.21 180.351C248.14 190.391 235.86 201.301 224.61 205.751C209.63 211.691 186.92 213.211 171.67 209.311C143.34 202.071 125.96 180.751 126 153.321C126.03 135.441 130.94 122.721 142.2 111.371C149.57 103.951 163.42 96.9712 176.7 94.0012C177.8 93.7512 184.52 93.5012 191.64 93.4412ZM194.39 118.751C189.67 118.521 184.83 118.911 181.86 119.771V119.761C165.06 124.601 156 140.381 159.19 159.241C162.06 176.261 174.18 185.831 192.7 185.711C207.25 185.621 219.95 178.041 224.01 167.031C233.16 142.191 219.55 119.981 194.39 118.751Z" fill="white"/>
<path fill-rule="evenodd" clip-rule="evenodd" d="M1147.19 2.53861C1135.11 5.45861 1018.22 34.3086 960.937 48.5086C939.627 53.7986 922.187 58.5486 922.187 59.0786C922.187 59.6286 923.797 59.7886 925.937 59.4586C927.997 59.1386 942.967 56.8586 959.187 54.4086C975.407 51.9486 995.657 48.8186 1004.19 47.4386C1044.28 40.9886 1113.43 30.7786 1113.89 31.2386C1114.09 31.4386 1110.36 40.7686 1105.61 51.9786C1100.87 63.1886 1093.23 81.8186 1088.65 93.3686C1084.07 104.919 1079.35 116.539 1078.17 119.199C1076.99 121.859 1076.21 124.229 1076.45 124.459C1076.87 124.879 1159.19 1.48859 1159.19 0.42859C1159.19 -0.34141 1159.02 -0.311394 1147.19 2.53861Z" fill="white"/>
<path fill-rule="evenodd" clip-rule="evenodd" d="M1088.69 46.5686C1087.04 46.7986 1068.36 49.2086 1047.19 51.9486C971.846 61.6686 885.736 75.4586 860.686 81.8086C856.236 82.9386 859.726 82.7786 881.686 80.8486C948.636 74.9786 984.376 73.0586 1033.03 72.7386C1059.18 72.5586 1064.51 72.7586 1065.25 73.9486C1065.74 74.7286 1066.04 86.7086 1065.92 100.569C1065.79 114.429 1066 125.459 1066.38 125.069C1066.98 124.459 1098.19 47.0886 1098.19 46.2086C1098.19 45.8086 1092.91 46.0086 1088.69 46.5686Z" fill="#146CFF"/>
</svg>
