<svg width="1160" height="214" viewBox="0 0 1160 214" fill="none" xmlns="http://www.w3.org/2000/svg">
<path d="M841.75 96.7403C858.06 96.4103 855.91 95.7103 863.14 103.72C863.507 104.12 863.867 104.487 864.22 104.82L867.04 108.44H867.02L872.76 115.53C875.92 119.44 881.81 126.63 885.85 131.53C889.89 136.43 897.54 145.84 902.85 152.44L912.5 164.44L913.5 106.71L927 103.29C934.42 101.4 941.17 99.7703 942 99.6503C943.32 99.4703 943.53 106.31 943.76 155.19L944.02 210.94H913.75L910.02 206.69C906.57 202.76 898.36 192.62 877.01 165.94C872.39 160.17 866.22 152.6 863.3 149.13L858 142.83V210.94H827V97.0403L841.75 96.7403Z" fill="#0B1E2D"/>
<path fill-rule="evenodd" clip-rule="evenodd" d="M0 153.94V210.94H15.49H30.97L31.24 176.94L31.5 142.94L44.62 158.69C69.1 188.07 81.22 202.43 85.14 206.69L89.04 210.94H103.02H117V153.94V96.9403H101.51H86.03L85.76 130.14L85.5 163.33L78.53 154.89C74.7 150.24 68.82 143.29 65.47 139.44C62.12 135.59 58.28 131.04 56.94 129.34C55.6 127.63 48.96 119.64 42.18 111.59L29.86 96.9403H14.93H0V153.94Z" fill="#0B1E2D"/>
<path fill-rule="evenodd" clip-rule="evenodd" d="M259 97.6403C259 98.2703 293.79 201.58 296.24 208.21L297.26 210.99L312.37 210.71L327.48 210.44L335.55 186.94C340 174.02 345.02 159.49 346.71 154.65L349.79 145.87L351.47 150.65C352.39 153.29 357.12 167.14 361.97 181.44C366.82 195.74 371.11 208.23 371.5 209.19C372.14 210.75 373.88 210.94 387.41 210.94H402.62L406.45 199.69C408.56 193.5 413.19 180.34 416.74 170.44C423.06 152.83 442 97.9603 442 97.2803C442 97.0903 434.63 96.9403 425.62 96.9403C410.87 96.9403 409.18 97.1203 408.74 98.6903C406.92 105.18 389.68 160.29 388.36 163.83L386.72 168.23L383.57 159.83C381.84 155.22 376.18 139.16 371 124.16L361.58 96.8803L349.68 97.1603L337.78 97.4403L334.38 106.94C332.51 112.17 327.06 128.02 322.26 142.17C317.48 156.32 313.27 167.57 312.91 167.17C312.23 166.39 302.62 136.49 299.02 123.94C297.84 119.82 295.52 112.05 293.87 106.69L290.87 96.9403H274.94C266.17 96.9403 259 97.2603 259 97.6403Z" fill="#0B1E2D"/>
<path d="M489.26 96.9503L505.5 96.9603L507.15 100.7C510.78 108.89 523.32 135.9 527 143.44C530.61 150.82 533.82 157.74 551.57 196.23C556.02 205.89 557.55 210.17 556.68 210.51C555.99 210.78 548.32 210.87 539.65 210.72L523.88 210.44L519.27 200.19L514.66 189.94L488.58 189.95L462.5 189.97L460.22 195.9C458.97 199.16 457.03 203.87 455.92 206.38L453.91 210.94H437.45C428.4 210.94 421 210.77 421 210.56C421 209.84 424.19 202.39 427.48 195.44C429.3 191.59 435.96 177.19 442.26 163.44C448.57 149.69 456 133.49 458.77 127.44C461.55 121.39 465.89 112.05 468.42 106.69L473.02 96.9403L489.26 96.9503ZM489.11 129.75C488.77 129.37 487.07 132.52 485.33 136.75C483.59 140.98 480.12 149.28 477.62 155.19L473.08 165.94H505.13L504.44 163.69C503.57 160.86 489.94 130.7 489.11 129.75Z" fill="#0B1E2D"/>
<path fill-rule="evenodd" clip-rule="evenodd" d="M564 109.44V121.94H594.58H625.16L621.83 125.79C620 127.9 613.6 135.21 607.62 142.04C601.63 148.86 592.85 158.9 588.12 164.36C583.38 169.81 576.46 177.69 572.75 181.85L566 189.43V200.19V210.94H618H670V198.45V185.97L640.01 185.7L610.02 185.44L614.26 180.28C618.94 174.58 636.09 154.73 637.01 153.94C637.33 153.67 644.44 145.49 652.8 135.77L668 118.09V107.52V96.9403H616H564V109.44Z" fill="#0B1E2D"/>
<path fill-rule="evenodd" clip-rule="evenodd" d="M961 153.95V210.96L1006.75 210.7L1052.5 210.44V198.44V186.44L1022.75 186.18L993 185.91V175.93C993 166.28 993.08 165.94 995.25 165.79C996.49 165.7 997.95 165.53 998.5 165.4C999.05 165.28 1009.53 165.12 1021.78 165.06L1044.06 164.94L1043.78 153.19L1043.5 141.44L1018.25 141.17L993 140.91V131.44V121.97L1021.75 121.7L1050.5 121.44L1050.78 109.19L1051.06 96.9403H1006.03H961V153.95Z" fill="#0B1E2D"/>
<path fill-rule="evenodd" clip-rule="evenodd" d="M741.767 92.3714C734.609 93.0566 726.47 95.4181 720.361 98.5845C708.956 104.496 700.494 112.753 694.375 123.938C690.29 131.403 687.782 141.495 688.207 148.757C688.874 160.149 697.289 171.148 711.72 179.488C715.743 181.811 722.226 184.654 726.349 185.902C728.657 186.6 732.283 187.59 732.92 187.696C733.862 187.851 733.517 187.532 732.006 186.848C724.125 183.279 715.95 175.474 711.954 167.704C710.11 164.117 709.103 161.073 708.517 157.319C706.934 147.178 711.542 135.515 720.578 126.792C723.542 123.93 725.123 122.684 731.407 118.252C733.996 116.427 737.208 114.152 738.547 113.197C746.785 107.315 749.848 105.359 754.958 102.711C760.99 99.5846 765.381 98.0131 770.119 97.2826C770.547 97.2157 770.896 97.1111 770.895 97.0485C770.888 96.8922 766.199 95.2384 764.175 94.6772C757.915 92.945 752.674 92.1924 746.827 92.189C745.105 92.188 742.829 92.2696 741.767 92.3714Z" fill="#146CFF"/>
<path fill-rule="evenodd" clip-rule="evenodd" d="M767.694 101.368C762.418 102.094 755.851 104.807 750.143 108.622C748.355 109.818 745.519 111.923 745.522 112.052C745.523 112.117 746.47 112.193 747.626 112.222C760.19 112.538 772.418 118.605 780.161 128.363C782.534 131.351 785.109 135.918 786.36 139.347C790.335 150.251 788.143 162.566 780.286 173.463C775.596 179.969 769.767 185.022 761.029 190.162C750.054 196.616 739.613 201.465 731.981 203.654C727.561 204.921 725.507 205.281 722.277 205.359C720.67 205.398 719.357 205.467 719.361 205.512C719.366 205.592 720.404 206.05 724.012 207.568C727.473 209.024 732.302 210.42 736.655 211.225C744.863 212.742 754.193 212.599 762.048 210.834C776.516 207.586 788.991 199.637 798.049 187.9C800.653 184.526 803.47 179.835 805.026 176.282C810.13 164.635 811.406 152.108 808.717 140.067C808.145 137.51 806.436 132.556 805.085 129.536C801.082 120.592 794.425 112.287 787.003 106.977C782.754 103.938 778.613 102.141 774.286 101.458C772.559 101.183 769.35 101.14 767.694 101.368Z" fill="#0B1E2D"/>
<path fill-rule="evenodd" clip-rule="evenodd" d="M686.32 159.482C686.373 159.776 686.473 160.533 686.542 161.166C686.825 163.736 688.026 168.556 689.236 171.979C692.201 180.358 697.169 188.218 703.294 194.22C707.534 198.374 710.231 200.13 714.35 201.411C717.167 202.286 718.753 202.478 722.419 202.384C724.943 202.321 726.101 202.213 727.844 201.883C733.503 200.81 739.512 198.659 745.824 195.448C749.024 193.82 752.38 191.833 752.254 191.639C752.208 191.569 751.667 191.558 751.052 191.616C749.56 191.755 744.877 191.53 742.091 191.186C728.161 189.463 715.208 184.976 704.824 178.273C697.053 173.258 690.578 166.701 687.39 160.62C686.489 158.899 686.155 158.543 686.32 159.482Z" fill="#146CFF"/>
<path d="M191.64 93.4412C207.31 93.3012 214.02 94.7312 227.2 101.051C234.59 104.601 238.14 107.061 243.27 112.211C251.46 120.431 254.64 125.821 257.2 135.821C261.01 150.711 259.46 167.961 253.21 180.351C248.14 190.391 235.86 201.301 224.61 205.751C209.63 211.691 186.92 213.211 171.67 209.311C143.34 202.071 125.96 180.751 126 153.321C126.03 135.441 130.94 122.721 142.2 111.371C149.57 103.951 163.42 96.9712 176.7 94.0012C177.8 93.7512 184.52 93.5012 191.64 93.4412ZM194.39 118.751C189.67 118.521 184.83 118.911 181.86 119.771V119.761C165.06 124.601 156 140.381 159.19 159.241C162.06 176.261 174.18 185.831 192.7 185.711C207.25 185.621 219.95 178.041 224.01 167.031C233.16 142.191 219.55 119.981 194.39 118.751Z" fill="#0B1E2D"/>
<path fill-rule="evenodd" clip-rule="evenodd" d="M1147.19 2.53861C1135.11 5.45861 1018.22 34.3086 960.937 48.5086C939.627 53.7986 922.187 58.5486 922.187 59.0786C922.187 59.6286 923.797 59.7886 925.937 59.4586C927.997 59.1386 942.967 56.8586 959.187 54.4086C975.407 51.9486 995.657 48.8186 1004.19 47.4386C1044.28 40.9886 1113.43 30.7786 1113.89 31.2386C1114.09 31.4386 1110.36 40.7686 1105.61 51.9786C1100.87 63.1886 1093.23 81.8186 1088.65 93.3686C1084.07 104.919 1079.35 116.539 1078.17 119.199C1076.99 121.859 1076.21 124.229 1076.45 124.459C1076.87 124.879 1159.19 1.48859 1159.19 0.42859C1159.19 -0.34141 1159.02 -0.311394 1147.19 2.53861Z" fill="black"/>
<path fill-rule="evenodd" clip-rule="evenodd" d="M1088.69 46.5686C1087.04 46.7986 1068.36 49.2086 1047.19 51.9486C971.846 61.6686 885.736 75.4586 860.686 81.8086C856.236 82.9386 859.726 82.7786 881.686 80.8486C948.636 74.9786 984.376 73.0586 1033.03 72.7386C1059.18 72.5586 1064.51 72.7586 1065.25 73.9486C1065.74 74.7286 1066.04 86.7086 1065.92 100.569C1065.79 114.429 1066 125.459 1066.38 125.069C1066.98 124.459 1098.19 47.0886 1098.19 46.2086C1098.19 45.8086 1092.91 46.0086 1088.69 46.5686Z" fill="#146CFF"/>
</svg>
